HIERARCHY
ROOT pelvis
{
  OFFSET 0 100 0
  CHANNELS 6 Xposition Yposition Zposition Zrotation Xrotation Yrotation
  JOINT pelvis_right_femur
  {
    OFFSET -10.78128 -3.44521 -0.5502486
    CHANNELS 3 Zrotation Xrotation Yrotation
    JOINT right_femur_tibia
    {
      OFFSET -0.8047443 -44.0398 -0.1307829
      CHANNELS 3 Zrotation Xrotation Yrotation
      JOINT right_tibia_foot
      {
        OFFSET 3.006224 -47.83518 -5
        CHANNELS 3 Zrotation Xrotation Yrotation
        End Site
        {
          OFFSET 0 -5 15
        }
      }
    }
  }
  JOINT pelvis_left_femur
  {
    OFFSET 10.78128 -3.44521 -0.5502486
    CHANNELS 3 Zrotation Xrotation Yrotation
    JOINT left_femur_tibia
    {
      OFFSET 0.8047443 -44.0398 -0.1307829
      CHANNELS 3 Zrotation Xrotation Yrotation
      JOINT left_tibia_foot
      {
        OFFSET -4.370144 -48.10324 -4.275266
        CHANNELS 3 Zrotation Xrotation Yrotation
        End Site
        {
          OFFSET 0 -5 15
        }
      }
    }
  }
  JOINT pelvis_spine1
  {
    OFFSET 0 6.468898 -3.129235
    CHANNELS 3 Zrotation Xrotation Yrotation
    JOINT spine1
    {
      OFFSET 0 23.15396 4.99043
      CHANNELS 3 Zrotation Xrotation Yrotation
      JOINT spine2
      {
        OFFSET 0 20.79997 -5.064912
        CHANNELS 3 Zrotation Xrotation Yrotation
        JOINT neck
        {
          OFFSET 0 14.38658 9.616178
          CHANNELS 3 Zrotation Xrotation Yrotation
          End Site
          {
            OFFSET 0 20 0
          }
        }
      }
      JOINT right_manubrium
      {
        OFFSET -5.722621 16.35077 3.967754
        CHANNELS 3 Zrotation Xrotation Yrotation
        JOINT right_clavicle
        {
          OFFSET -13.16364 1.694482 -4.693211
          CHANNELS 3 Zrotation Xrotation Yrotation
          JOINT right_humerus
          {
            OFFSET -28.5034 -0.3100689 -2.792744
            CHANNELS 3 Zrotation Xrotation Yrotation
            JOINT right_radius
            {
              OFFSET -25.15693 0.02248979 -1.271978
              CHANNELS 3 Zrotation Xrotation Yrotation
              End Site
              {
                OFFSET -15 0 0
              }
            }
          }
        }
      }
      JOINT left_manubrium
      {
        OFFSET 5.722621 16.35077 3.967754
        CHANNELS 3 Zrotation Xrotation Yrotation
        JOINT left_clavicle
        {
          OFFSET 13.16364 1.694482 -4.693211
          CHANNELS 3 Zrotation Xrotation Yrotation
          JOINT left_humerus
          {
            OFFSET 29.39168 -1.063119 -2.237045
            CHANNELS 3 Zrotation Xrotation Yrotation
            JOINT left_radius
            {
              OFFSET 24.59957 -0.9528479 0.9047498
              CHANNELS 3 Zrotation Xrotation Yrotation
              End Site
              {
                OFFSET 15 -0 -0
              }
            }
          }
        }
      }
    }
  }
}
MOTION
Frames: 23
Frame Time: 0.0416666666667
5.151957 102.3187 206.6639 -4.565976 -11.03896 -15.98851 7.519793 10.89199 0.2521921 -0 20.25854 -0 -6.9694 -1.600826 -0.319462 3.577542 -12.97197 -2.259933 -0 20.61533 -0 1.736051 -0.007133623 13.37934 3.428418 -5.158909 8.312765 -0.6761308 20.37569 -5.733178 1.051505 17.67869 3.026787 1.304302 -18.41467 3.902739 -1.613149 -33.82033 14.44568 91.33878 7.378485 -12.62339 -0 0 30.16877 -31.50266 21.28122 19.11049 1.629504 -25.38691 -11.67196 -95.53492 8.038693 40.58065 0 0 -14.44153 3.292765 15.13904 10.57181
4.726965 102.3211 212.7232 -4.71721 -10.97583 -16.78056 7.519793 10.89199 0.2521921 -0 20.25854 -0 -6.9694 -1.600826 -0.319462 3.577542 -12.97197 -2.259933 -0 20.61533 -0 1.736051 -0.007133623 13.37934 3.428418 -5.158909 8.312765 -0.6761308 20.37569 -5.733178 1.051505 17.67869 3.026787 1.304302 -18.41467 3.902739 -1.613149 -33.82033 14.44568 91.33878 7.378485 -12.62339 -0 0 30.16877 -31.50266 21.28122 19.11049 1.629504 -25.38691 -11.67196 -95.53492 8.038693 40.58065 0 0 -14.44153 3.292765 15.13904 10.57181
4.219522 102.3235 218.7761 -4.867509 -10.91066 -17.57228 7.519793 10.89199 0.2521921 -0 20.25854 -0 -6.9694 -1.600826 -0.319462 3.577542 -12.97197 -2.259933 -0 20.61533 -0 1.736051 -0.007133623 13.37934 3.428418 -5.158909 8.312765 -0.6761308 20.37569 -5.733178 1.051505 17.67869 3.026787 1.304302 -18.41467 3.902739 -1.613149 -33.82033 14.44568 91.33878 7.378485 -12.62339 -0 0 30.16877 -31.50266 21.28122 19.11049 1.629504 -25.38691 -11.67196 -95.53492 8.038693 40.58065 0 0 -14.44153 3.292765 15.13904 10.57181
3.629722 102.3259 224.8215 -5.016843 -10.84346 -18.36364 7.519793 10.89199 0.2521921 -0 20.25854 -0 -6.9694 -1.600826 -0.319462 3.577542 -12.97197 -2.259933 -0 20.61533 -0 1.736051 -0.007133623 13.37934 3.428418 -5.158909 8.312765 -0.6761308 20.37569 -5.733178 1.051505 17.67869 3.026787 1.304302 -18.41467 3.902739 -1.613149 -33.82033 14.44568 91.33878 7.378485 -12.62339 -0 0 30.16877 -31.50266 21.28122 19.11049 1.629504 -25.38691 -11.67196 -95.53492 8.038693 40.58065 0 0 -14.44153 3.292765 15.13904 10.57181
2.957675 102.3283 230.8584 -5.165184 -10.77424 -19.15464 7.519793 10.89199 0.2521921 -0 20.25854 -0 -6.9694 -1.600826 -0.319462 3.577542 -12.97197 -2.259933 -0 20.61533 -0 1.736051 -0.007133623 13.37934 3.428418 -5.158909 8.312765 -0.6761308 20.37569 -5.733178 1.051505 17.67869 3.026787 1.304302 -18.41467 3.902739 -1.613149 -33.82033 14.44568 91.33878 7.378485 -12.62339 -0 0 30.16877 -31.50266 21.28122 19.11049 1.629504 -25.38691 -11.67196 -95.53492 8.038693 40.58065 0 0 -14.44153 3.292765 15.13904 10.57181
2.203505 102.3307 236.8855 -5.312504 -10.70301 -19.94527 7.519793 10.89199 0.2521921 -0 20.25854 -0 -6.9694 -1.600826 -0.319462 3.577542 -12.97197 -2.259933 -0 20.61533 -0 1.736051 -0.007133623 13.37934 3.428418 -5.158909 8.312765 -0.6761308 20.37569 -5.733178 1.051505 17.67869 3.026787 1.304302 -18.41467 3.902739 -1.613149 -33.82033 14.44568 91.33878 7.378485 -12.62339 -0 0 30.16877 -31.50266 21.28122 19.11049 1.629504 -25.38691 -11.67196 -95.53492 8.038693 40.58065 0 0 -14.44153 3.292765 15.13904 10.57181
1.367351 102.3331 242.9018 -5.458775 -10.6298 -20.73553 7.519793 10.89199 0.2521921 -0 20.25854 -0 -6.9694 -1.600826 -0.319462 3.577542 -12.97197 -2.259933 -0 20.61533 -0 1.736051 -0.007133623 13.37934 3.428418 -5.158909 8.312765 -0.6761308 20.37569 -5.733178 1.051505 17.67869 3.026787 1.304302 -18.41467 3.902739 -1.613149 -33.82033 14.44568 91.33878 7.378485 -12.62339 -0 0 30.16877 -31.50266 21.28122 19.11049 1.629504 -25.38691 -11.67196 -95.53492 8.038693 40.58065 0 0 -14.44153 3.292765 15.13904 10.57181
0.44937 102.3355 248.9062 -5.603969 -10.55461 -21.5254 7.519793 10.89199 0.2521921 -0 20.25854 -0 -6.9694 -1.600826 -0.319462 3.577542 -12.97197 -2.259933 -0 20.61533 -0 1.736051 -0.007133623 13.37934 3.428418 -5.158909 8.312765 -0.6761308 20.37569 -5.733178 1.051505 17.67869 3.026787 1.304302 -18.41467 3.902739 -1.613149 -33.82033 14.44568 91.33878 7.378485 -12.62339 -0 0 30.16877 -31.50266 21.28122 19.11049 1.629504 -25.38691 -11.67196 -95.53492 8.038693 40.58065 0 0 -14.44153 3.292765 15.13904 10.57181
-0.5502694 102.3379 254.8975 -5.74806 -10.47746 -22.31488 7.519793 10.89199 0.2521921 -0 20.25854 -0 -6.9694 -1.600826 -0.319462 3.577542 -12.97197 -2.259933 -0 20.61533 -0 1.736051 -0.007133623 13.37934 3.428418 -5.158909 8.312765 -0.6761308 20.37569 -5.733178 1.051505 17.67869 3.026787 1.304302 -18.41467 3.902739 -1.613149 -33.82033 14.44568 91.33878 7.378485 -12.62339 -0 0 30.16877 -31.50266 21.28122 19.11049 1.629504 -25.38691 -11.67196 -95.53492 8.038693 40.58065 0 0 -14.44153 3.292765 15.13904 10.57181
-1.631381 102.3402 260.8747 -5.89102 -10.39836 -23.10396 7.519793 10.89199 0.2521921 -0 20.25854 -0 -6.9694 -1.600826 -0.319462 3.577542 -12.97197 -2.259933 -0 20.61533 -0 1.736051 -0.007133623 13.37934 3.428418 -5.158909 8.312765 -0.6761308 20.37569 -5.733178 1.051505 17.67869 3.026787 1.304302 -18.41467 3.902739 -1.613149 -33.82033 14.44568 91.33878 7.378485 -12.62339 -0 0 30.16877 -31.50266 21.28122 19.11049 1.629504 -25.38691 -11.67196 -95.53492 8.038693 40.58065 0 0 -14.44153 3.292765 15.13904 10.57181
-2.793766 102.3426 266.8366 -6.032823 -10.31734 -23.89264 7.519793 10.89199 0.2521921 -0 20.25854 -0 -6.9694 -1.600826 -0.319462 3.577542 -12.97197 -2.259933 -0 20.61533 -0 1.736051 -0.007133623 13.37934 3.428418 -5.158909 8.312765 -0.6761308 20.37569 -5.733178 1.051505 17.67869 3.026787 1.304302 -18.41467 3.902739 -1.613149 -33.82033 14.44568 91.33878 7.378485 -12.62339 -0 0 30.16877 -31.50266 21.28122 19.11049 1.629504 -25.38691 -11.67196 -95.53492 8.038693 40.58065 0 0 -14.44153 3.292765 15.13904 10.57181
-4.037207 102.345 272.7821 -6.173442 -10.23441 -24.6809 7.519793 10.89199 0.2521921 -0 20.25854 -0 -6.9694 -1.600826 -0.319462 3.577542 -12.97197 -2.259933 -0 20.61533 -0 1.736051 -0.007133623 13.37934 3.428418 -5.158909 8.312765 -0.6761308 20.37569 -5.733178 1.051505 17.67869 3.026787 1.304302 -18.41467 3.902739 -1.613149 -33.82033 14.44568 91.33878 7.378485 -12.62339 -0 0 30.16877 -31.50266 21.28122 19.11049 1.629504 -25.38691 -11.67196 -95.53492 8.038693 40.58065 0 0 -14.44153 3.292765 15.13904 10.57181
-5.361475 102.3474 278.7101 -6.312853 -10.14958 -25.46875 7.519793 10.89199 0.2521921 -0 20.25854 -0 -6.9694 -1.600826 -0.319462 3.577542 -12.97197 -2.259933 -0 20.61533 -0 1.736051 -0.007133623 13.37934 3.428418 -5.158909 8.312765 -0.6761308 20.37569 -5.733178 1.051505 17.67869 3.026787 1.304302 -18.41467 3.902739 -1.613149 -33.82033 14.44568 91.33878 7.378485 -12.62339 -0 0 30.16877 -31.50266 21.28122 19.11049 1.629504 -25.38691 -11.67196 -95.53492 8.038693 40.58065 0 0 -14.44153 3.292765 15.13904 10.57181
-6.766323 102.3498 284.6195 -6.451028 -10.06287 -26.25618 7.519793 10.89199 0.2521921 -0 20.25854 -0 -6.9694 -1.600826 -0.319462 3.577542 -12.97197 -2.259933 -0 20.61533 -0 1.736051 -0.007133623 13.37934 3.428418 -5.158909 8.312765 -0.6761308 20.37569 -5.733178 1.051505 17.67869 3.026787 1.304302 -18.41467 3.902739 -1.613149 -33.82033 14.44568 91.33878 7.378485 -12.62339 -0 0 30.16877 -31.50266 21.28122 19.11049 1.629504 -25.38691 -11.67196 -95.53492 8.038693 40.58065 0 0 -14.44153 3.292765 15.13904 10.57181
-8.251493 102.3522 290.5093 -6.587942 -9.974302 -27.04318 7.519793 10.89199 0.2521921 -0 20.25854 -0 -6.9694 -1.600826 -0.319462 3.577542 -12.97197 -2.259933 -0 20.61533 -0 1.736051 -0.007133623 13.37934 3.428418 -5.158909 8.312765 -0.6761308 20.37569 -5.733178 1.051505 17.67869 3.026787 1.304302 -18.41467 3.902739 -1.613149 -33.82033 14.44568 91.33878 7.378485 -12.62339 -0 0 30.16877 -31.50266 21.28122 19.11049 1.629504 -25.38691 -11.67196 -95.53492 8.038693 40.58065 0 0 -14.44153 3.292765 15.13904 10.57181
-9.816707 102.3546 296.3783 -6.723572 -9.88389 -27.82975 7.519793 10.89199 0.2521921 -0 20.25854 -0 -6.9694 -1.600826 -0.319462 3.577542 -12.97197 -2.259933 -0 20.61533 -0 1.736051 -0.007133623 13.37934 3.428418 -5.158909 8.312765 -0.6761308 20.37569 -5.733178 1.051505 17.67869 3.026787 1.304302 -18.41467 3.902739 -1.613149 -33.82033 14.44568 91.33878 7.378485 -12.62339 -0 0 30.16877 -31.50266 21.28122 19.11049 1.629504 -25.38691 -11.67196 -95.53492 8.038693 40.58065 0 0 -14.44153 3.292765 15.13904 10.57181
-11.46168 102.357 302.2255 -6.857892 -9.791654 -28.61588 7.519793 10.89199 0.2521921 -0 20.25854 -0 -6.9694 -1.600826 -0.319462 3.577542 -12.97197 -2.259933 -0 20.61533 -0 1.736051 -0.007133623 13.37934 3.428418 -5.158909 8.312765 -0.6761308 20.37569 -5.733178 1.051505 17.67869 3.026787 1.304302 -18.41467 3.902739 -1.613149 -33.82033 14.44568 91.33878 7.378485 -12.62339 -0 0 30.16877 -31.50266 21.28122 19.11049 1.629504 -25.38691 -11.67196 -95.53492 8.038693 40.58065 0 0 -14.44153 3.292765 15.13904 10.57181
-13.1861 102.3594 308.0497 -6.990878 -9.697611 -29.40157 7.519793 10.89199 0.2521921 -0 20.25854 -0 -6.9694 -1.600826 -0.319462 3.577542 -12.97197 -2.259933 -0 20.61533 -0 1.736051 -0.007133623 13.37934 3.428418 -5.158909 8.312765 -0.6761308 20.37569 -5.733178 1.051505 17.67869 3.026787 1.304302 -18.41467 3.902739 -1.613149 -33.82033 14.44568 91.33878 7.378485 -12.62339 -0 0 30.16877 -31.50266 21.28122 19.11049 1.629504 -25.38691 -11.67196 -95.53492 8.038693 40.58065 0 0 -14.44153 3.292765 15.13904 10.57181
-14.98965 102.3618 313.8499 -7.122506 -9.60178 -30.18682 7.519793 10.89199 0.2521921 -0 20.25854 -0 -6.9694 -1.600826 -0.319462 3.577542 -12.97197 -2.259933 -0 20.61533 -0 1.736051 -0.007133623 13.37934 3.428418 -5.158909 8.312765 -0.6761308 20.37569 -5.733178 1.051505 17.67869 3.026787 1.304302 -18.41467 3.902739 -1.613149 -33.82033 14.44568 91.33878 7.378485 -12.62339 -0 0 30.16877 -31.50266 21.28122 19.11049 1.629504 -25.38691 -11.67196 -95.53492 8.038693 40.58065 0 0 -14.44153 3.292765 15.13904 10.57181
-16.872 102.3641 319.625 -7.252752 -9.50418 -30.97162 7.519793 10.89199 0.2521921 -0 20.25854 -0 -6.9694 -1.600826 -0.319462 3.577542 -12.97197 -2.259933 -0 20.61533 -0 1.736051 -0.007133623 13.37934 3.428418 -5.158909 8.312765 -0.6761308 20.37569 -5.733178 1.051505 17.67869 3.026787 1.304302 -18.41467 3.902739 -1.613149 -33.82033 14.44568 91.33878 7.378485 -12.62339 -0 0 30.16877 -31.50266 21.28122 19.11049 1.629504 -25.38691 -11.67196 -95.53492 8.038693 40.58065 0 0 -14.44153 3.292765 15.13904 10.57181
-18.83279 102.3665 325.374 -7.381594 -9.40483 -31.75596 7.519793 10.89199 0.2521921 -0 20.25854 -0 -6.9694 -1.600826 -0.319462 3.577542 -12.97197 -2.259933 -0 20.61533 -0 1.736051 -0.007133623 13.37934 3.428418 -5.158909 8.312765 -0.6761308 20.37569 -5.733178 1.051505 17.67869 3.026787 1.304302 -18.41467 3.902739 -1.613149 -33.82033 14.44568 91.33878 7.378485 -12.62339 -0 0 30.16877 -31.50266 21.28122 19.11049 1.629504 -25.38691 -11.67196 -95.53492 8.038693 40.58065 0 0 -14.44153 3.292765 15.13904 10.57181
-20.87167 102.3689 331.0957 -7.509009 -9.303751 -32.53986 7.519793 10.89199 0.2521921 -0 20.25854 -0 -6.9694 -1.600826 -0.319462 3.577542 -12.97197 -2.259933 -0 20.61533 -0 1.736051 -0.007133623 13.37934 3.428418 -5.158909 8.312765 -0.6761308 20.37569 -5.733178 1.051505 17.67869 3.026787 1.304302 -18.41467 3.902739 -1.613149 -33.82033 14.44568 91.33878 7.378485 -12.62339 -0 0 30.16877 -31.50266 21.28122 19.11049 1.629504 -25.38691 -11.67196 -95.53492 8.038693 40.58065 0 0 -14.44153 3.292765 15.13904 10.57181
-22.98825 102.3713 336.7892 -7.634974 -9.200961 -33.32329 7.519793 10.89199 0.2521921 -0 20.25854 -0 -6.9694 -1.600826 -0.319462 3.577542 -12.97197 -2.259933 -0 20.61533 -0 1.736051 -0.007133623 13.37934 3.428418 -5.158909 8.312765 -0.6761308 20.37569 -5.733178 1.051505 17.67869 3.026787 1.304302 -18.41467 3.902739 -1.613149 -33.82033 14.44568 91.33878 7.378485 -12.62339 -0 0 30.16877 -31.50266 21.28122 19.11049 1.629504 -25.38691 -11.67196 -95.53492 8.038693 40.58065 0 0 -14.44153 3.292765 15.13904 10.57181
